<?xml version="1.0" standalone="no"?><!DOCTYPE svg PUBLIC "-//W3C//DTD SVG 1.1//EN" "http://www.w3.org/Graphics/SVG/1.1/DTD/svg11.dtd"><svg t="1665639556763" class="icon" viewBox="0 0 1024 1024" version="1.1" xmlns="http://www.w3.org/2000/svg" p-id="49407" xmlns:xlink="http://www.w3.org/1999/xlink" width="32" height="32"><path d="M186.666667 42.666667h469.333333l234.666667 234.666666v645.333334A58.666667 58.666667 0 0 1 832 981.333333H186.666667A58.666667 58.666667 0 0 1 128 922.666667V101.333333A58.666667 58.666667 0 0 1 186.666667 42.666667z" fill="#4CB050" p-id="49408"></path><path d="M406.897778 746.666667L512 595.811556 617.642667 746.666667h50.090666l-131.427555-182.897778 121.969778-169.102222h-50.090667L512 531.712l-95.715556-137.045333h-50.062222l120.988445 169.102222-130.417778 182.897778h50.104889z" fill="#FFFFFF" p-id="49409"></path><path d="M656 42.666667l234.666667 234.666666H714.666667a58.666667 58.666667 0 0 1-58.666667-58.666666V42.666667z" fill="#B7DFB9" p-id="49410"></path></svg>