<?xml version="1.0" standalone="no"?><!DOCTYPE svg PUBLIC "-//W3C//DTD SVG 1.1//EN" "http://www.w3.org/Graphics/SVG/1.1/DTD/svg11.dtd"><svg t="1665639576113" class="icon" viewBox="0 0 1024 1024" version="1.1" xmlns="http://www.w3.org/2000/svg" p-id="49687" xmlns:xlink="http://www.w3.org/1999/xlink" width="32" height="32"><path d="M186.666667 42.666667h469.333333l234.666667 234.666666v645.333334A58.666667 58.666667 0 0 1 832 981.333333H186.666667A58.666667 58.666667 0 0 1 128 922.666667V101.333333A58.666667 58.666667 0 0 1 186.666667 42.666667z" fill="#FA4E4E" p-id="49688"></path><path d="M661.774222 674.830222c-31.672889-2.360889-62.151111-14.108444-86.798222-35.285333-48.099556 10.581333-93.852444 25.870222-139.591111 44.700444-36.366222 64.682667-70.4 97.621333-99.712 97.621334-5.873778 0-12.899556-1.180444-17.592889-4.693334-12.913778-5.888-19.939556-18.830222-19.939556-31.772444 0-10.581333 2.346667-39.992889 113.777778-88.220445 25.813333-47.047111 45.752889-95.274667 62.179556-145.848888-14.08-28.231111-44.586667-97.635556-23.466667-132.920889 7.04-12.942222 21.12-19.996444 36.366222-18.816 11.733333 0 23.466667 5.873778 30.492445 15.288889 15.260444 21.176889 14.08 65.877333-5.859556 131.740444a354.645333 354.645333 0 0 0 72.732445 94.108444c24.632889-4.721778 49.265778-8.248889 73.898666-8.248888 55.139556 1.180444 63.345778 27.064889 62.179556 42.353777 0 39.992889-38.727111 39.992889-58.666667 39.992889z m-328.448 72.917334l3.527111-1.166223c16.412444-5.873778 29.312-17.635556 38.698667-32.938666-17.592889 7.054222-31.672889 18.816-42.225778 34.104889z m156.017778-352.853334h-3.527111c-1.166222 0-3.512889 0-4.693333 1.166222-4.693333 19.996444-1.166222 41.159111 7.04 59.989334 7.04-19.996444 7.04-41.173333 1.180444-61.155556z m8.206222 170.552889l-1.166222 2.332445-1.180444-1.166223a972.942222 972.942222 0 0 1-35.185778 79.985778l2.346666-1.166222v2.346667a681.728 681.728 0 0 1 79.758223-23.537778l-1.166223-1.166222h3.512889c-17.592889-17.635556-34.019556-37.646222-46.919111-57.642667z m159.530667 62.336c-10.552889 0-19.939556 0-30.492445 2.346667 11.733333 5.873778 23.466667 8.234667 35.185778 9.415111 8.220444 1.166222 16.426667 0 23.466667-2.360889 0-3.527111-4.693333-9.400889-28.16-9.400889z" fill="#FFFFFF" p-id="49689"></path><path d="M656 42.666667l234.666667 234.666666H714.666667a58.666667 58.666667 0 0 1-58.666667-58.666666V42.666667z" fill="#FDB8B8" p-id="49690"></path></svg>