<?xml version="1.0" standalone="no"?><!DOCTYPE svg PUBLIC "-//W3C//DTD SVG 1.1//EN" "http://www.w3.org/Graphics/SVG/1.1/DTD/svg11.dtd"><svg t="1665639545128" class="icon" viewBox="0 0 1024 1024" version="1.1" xmlns="http://www.w3.org/2000/svg" p-id="49267" xmlns:xlink="http://www.w3.org/1999/xlink" width="32" height="32"><path d="M186.666667 42.666667h469.333333l234.666667 234.666666v645.333334A58.666667 58.666667 0 0 1 832 981.333333H186.666667A58.666667 58.666667 0 0 1 128 922.666667V101.333333A58.666667 58.666667 0 0 1 186.666667 42.666667z" fill="#FF9333" p-id="49268"></path><path d="M388.451556 440.888889c26.666667 0 49.777778-21.333333 49.777777-49.777778 0-26.666667-21.333333-49.777778-49.777777-49.777778-26.666667 0-49.777778 21.333333-49.777778 49.777778 1.777778 28.444444 23.111111 49.777778 49.777778 49.777778zM616.675556 466.289778a7.111111 7.111111 0 0 0-12.344889-0.753778l-125.482667 191.573333a7.111111 7.111111 0 0 1-11.889778 0.042667l-59.761778-90.282667a7.111111 7.111111 0 0 0-11.875555 0.014223l-106.296889 161.649777a7.111111 7.111111 0 0 0 5.944889 11.022223h444.728889a7.111111 7.111111 0 0 0 6.371555-10.24l-129.408-263.025778z" fill="#FFFFFF" p-id="49269"></path><path d="M656 42.666667l234.666667 234.666666H714.666667a58.666667 58.666667 0 0 1-58.666667-58.666666V42.666667z" fill="#FFD3AD" p-id="49270"></path></svg>