<?xml version="1.0" standalone="no"?><!DOCTYPE svg PUBLIC "-//W3C//DTD SVG 1.1//EN" "http://www.w3.org/Graphics/SVG/1.1/DTD/svg11.dtd"><svg t="1665639538879" class="icon" viewBox="0 0 1024 1024" version="1.1" xmlns="http://www.w3.org/2000/svg" p-id="49127" xmlns:xlink="http://www.w3.org/1999/xlink" width="32" height="32"><path d="M186.666667 42.666667h469.333333l234.666667 234.666666v645.333334A58.666667 58.666667 0 0 1 832 981.333333H186.666667A58.666667 58.666667 0 0 1 128 922.666667V101.333333A58.666667 58.666667 0 0 1 186.666667 42.666667z" fill="#FF9333" p-id="49128"></path><path d="M432.241778 746.666667V602.709333h102.542222c80.497778 0 121.216-34.986667 121.216-104.519111 0-69.020444-40.248889-103.523556-120.718222-103.523555H391.992889V746.666667h40.248889z m100.593778-178.958223h-100.593778v-138.040888h100.593778c27.960889 0 48.568889 5.432889 62.307555 17.251555 13.752889 10.353778 20.622222 27.605333 20.622222 51.285333 0 23.651556-6.869333 40.917333-20.124444 52.252445-13.738667 11.335111-34.346667 17.251556-62.805333 17.251555z" fill="#FFFFFF" p-id="49129"></path><path d="M656 42.666667l234.666667 234.666666H714.666667a58.666667 58.666667 0 0 1-58.666667-58.666666V42.666667z" fill="#FFD3AD" p-id="49130"></path></svg>