<?xml version="1.0" standalone="no"?><!DOCTYPE svg PUBLIC "-//W3C//DTD SVG 1.1//EN" "http://www.w3.org/Graphics/SVG/1.1/DTD/svg11.dtd"><svg t="1665639569421" class="icon" viewBox="0 0 1024 1024" version="1.1" xmlns="http://www.w3.org/2000/svg" p-id="49547" xmlns:xlink="http://www.w3.org/1999/xlink" width="32" height="32"><path d="M186.666667 42.666667h469.333333l234.666667 234.666666v645.333334A58.666667 58.666667 0 0 1 832 981.333333H186.666667A58.666667 58.666667 0 0 1 128 922.666667V101.333333A58.666667 58.666667 0 0 1 186.666667 42.666667z" fill="#4876F9" p-id="49548"></path><path d="M432.355556 746.666667l70.684444-259.114667h1.294222l70.257778 259.114667h39.452444l88.888889-310.940445H663.04L594.958222 696.604444h-1.735111l-70.243555-260.849777h-38.584889l-70.684445 260.835555h-1.735111l-68.081778-260.835555h-39.893333l88.888889 310.926222H432.355556z" fill="#FFFFFF" p-id="49549"></path><path d="M656 42.666667l234.666667 234.666666H714.666667a58.666667 58.666667 0 0 1-58.666667-58.666666V42.666667z" fill="#B5C8FC" p-id="49550"></path></svg>